PathFileType	4	(X/Y/Z)	s09c0202.trc
DataRate	CameraRate	NumFrames	NumMarkers	Units	OrigDataRate	OrigDataStartFrame	OrigNumFrames
200	200	4	50	mm	200	1750	2000
Frame#	Time	racr			lacr			c7			jug			rlel			rdr			llel			ldr			s2			lic			ric			lasi			rasi			rpsi			lpsi			rgt			lgt			rth1			rth2			rth3			rth4			rlfc			rmfc			rsh1			rsh2			rsh3			rsh4			rlmal			rmmal			rcal			rtoe			rmt5			lth1			lth2			lth4			lth3			llfc			lmfc			llmal			lmmal			lcal			lmt5			lsh1			lsh2			lsh3			lsh4			ltoe			SBIKE			LBIKE			RBIKE			
		X1	Y1	Z1	X2	Y2	Z2	X3	Y3	Z3	X4	Y4	Z4	X5	Y5	Z5	X6	Y6	Z6	X7	Y7	Z7	X8	Y8	Z8	X9	Y9	Z9	X10	Y10	Z10	X11	Y11	Z11	X12	Y12	Z12	X13	Y13	Z13	X14	Y14	Z14	X15	Y15	Z15	X16	Y16	Z16	X17	Y17	Z17	X18	Y18	Z18	X19	Y19	Z19	X20	Y20	Z20	X21	Y21	Z21	X22	Y22	Z22	X23	Y23	Z23	X24	Y24	Z24	X25	Y25	Z25	X26	Y26	Z26	X27	Y27	Z27	X28	Y28	Z28	X29	Y29	Z29	X30	Y30	Z30	X31	Y31	Z31	X32	Y32	Z32	X33	Y33	Z33	X34	Y34	Z34	X35	Y35	Z35	X36	Y36	Z36	X37	Y37	Z37	X38	Y38	Z38	X39	Y39	Z39	X40	Y40	Z40	X41	Y41	Z41	X42	Y42	Z42	X43	Y43	Z43	X44	Y44	Z44	X45	Y45	Z45	X46	Y46	Z46	X47	Y47	Z47	X48	Y48	Z48	X49	Y49	Z49	X50	Y50	Z50	
1750	8.7500	518.005101	1237.277242	-101.656420	459.349981	1222.737452	-467.846181	487.903262	1319.756885	-288.003438	473.854256	1185.537103	-279.411787	473.380667	1021.947397	34.623411	671.506818	900.800120	-35.606948	423.003554	953.069411	-548.629450	664.388350	906.743523	-476.815357	16.952723	1115.300237	-196.200009	129.760625	1137.890629	-366.034023	174.808943	1107.774352	-66.915300	183.772152	1087.140825	-347.674498	215.808708	1059.933866	-98.519774	52.693143	1142.388079	-139.201112	33.358303	1158.182554	-245.756588	150.344498	957.843828	-33.045422	130.119261	1034.092477	-409.345141	220.852769	844.592798	-45.678469	279.678523	780.085632	-57.229173	291.348024	692.606522	-70.302354	305.973160	793.855175	-79.442189	321.766609	604.465794	-102.041819	296.154362	583.632842	-197.939015	280.475337	512.101874	-65.632919	286.963821	423.414467	-77.198323	248.806350	344.379934	-74.203571	310.756977	421.348785	-109.079901	223.044028	244.556983	-70.678152	222.999157	254.809531	-146.483238	139.819580	233.371878	-110.650256	388.786198	135.791500	-132.604506	309.954970	145.324251	-61.881954	263.980503	996.684559	-398.205747	346.413437	997.861900	-383.413935	354.388623	1026.616444	-357.685711	427.954452	954.239651	-381.819628	507.176089	893.792315	-363.495715	512.339960	867.245044	-261.739066	266.560406	620.513412	-405.830922	279.576177	615.858018	-333.432525	184.479240	621.740413	-370.031939	303.871912	494.729895	-430.232799	449.560311	819.988827	-391.910199	408.492237	743.549454	-392.554801	332.793793	696.348205	-399.845790	427.781586	725.068530	-364.787697	389.052803	457.670774	-360.762755	-64.573321	852.264070	-238.196676	21.107051	84.787192	-442.108487	21.153377	84.009446	-43.734115	
1751	8.7550	519.592758	1236.009148	-104.330904	455.626981	1222.954380	-470.609776	487.563758	1319.095445	-290.641505	473.227002	1184.855154	-282.049778	474.647480	1022.290443	34.713963	671.901569	901.028879	-36.286144	422.390408	952.760123	-548.665364	663.737883	906.876052	-476.388204	18.284974	1115.561018	-194.303941	128.350318	1140.061100	-364.389221	176.382837	1107.538438	-66.164018	182.218750	1088.940783	-346.877938	216.967372	1059.849118	-98.115688	53.590656	1142.996159	-136.621806	33.040043	1159.557783	-242.995495	151.863626	957.970595	-32.237731	128.690352	1037.788202	-408.542048	221.670750	845.042912	-45.556602	280.531128	780.429575	-57.251147	292.400878	693.262487	-70.868351	306.833871	794.425516	-79.429785	322.303454	604.616597	-102.361403	297.148152	584.065630	-198.466424	279.609460	513.298745	-65.906286	284.191114	424.357284	-77.547703	244.414750	346.305949	-74.273129	307.940637	421.918814	-109.357616	216.659512	247.161112	-70.696521	216.061414	256.972062	-146.342214	133.056940	238.065783	-110.632053	378.706663	132.701198	-132.683043	300.267339	145.246663	-61.867672	262.902909	1001.898272	-396.835744	345.165055	1002.914021	-382.005493	352.867115	1031.620939	-355.919549	426.982842	959.744052	-381.007492	507.091840	898.890987	-362.408416	512.235540	872.529694	-261.407337	272.560914	619.464441	-406.127182	285.497290	615.356288	-333.859179	190.435937	618.248458	-370.219871	313.625788	494.888533	-430.503533	450.539943	823.838629	-391.514339	411.441618	746.335789	-392.520349	336.980298	697.226666	-399.827258	431.319205	728.111405	-364.984245	399.929601	460.907063	-361.040441	-64.579905	852.324556	-237.987819	21.082095	84.900476	-442.130184	21.102737	84.039406	-43.756960	
1752	8.7600	521.018342	1234.755468	-106.740686	452.201253	1223.145953	-473.097152	487.577082	1318.537988	-292.295750	472.498798	1184.211135	-284.598229	475.716851	1022.427347	34.688733	672.411407	901.260146	-36.701723	421.722057	952.334404	-548.795446	662.985845	906.979051	-475.930680	16.911233	1117.635179	-190.725684	126.726277	1142.453954	-362.704542	177.783233	1107.666120	-65.486618	180.683502	1090.682183	-346.118163	217.812859	1060.013860	-97.929214	54.482441	1143.786606	-134.411032	33.360776	1160.720957	-241.078061	153.172028	958.395433	-31.753485	127.373231	1041.532771	-407.679859	222.756591	845.751192	-45.362027	281.741853	781.288839	-57.455037	294.009730	694.046201	-70.492928	308.026801	795.497032	-79.437213	323.574294	605.269584	-102.738960	298.750898	585.156367	-199.024104	279.550629	514.927628	-66.307773	282.050231	425.902528	-77.958422	240.622691	348.732831	-74.415814	305.664955	423.062408	-109.758521	210.681227	250.455123	-70.707490	210.013848	259.934468	-146.379698	126.884129	243.557184	-110.648459	368.497875	130.436181	-132.540544	290.730695	145.682441	-61.814333	261.858775	1006.550479	-395.693147	345.283634	1006.931345	-379.816751	351.825798	1035.520007	-354.240094	425.640991	964.177305	-380.369670	506.344505	902.772716	-362.349526	510.583164	876.915846	-260.083194	278.365047	617.371859	-406.436782	291.188740	613.942350	-334.223747	195.760609	613.697254	-370.661666	323.129229	494.507286	-430.839340	450.909743	826.625772	-391.578444	413.944439	747.905177	-392.681104	340.734727	697.155670	-399.963019	434.425556	730.193763	-365.288704	410.653048	463.676813	-361.220926	-64.582300	852.359905	-237.800692	21.040544	85.012527	-442.108181	21.079662	84.057192	-43.746366	
1753	8.7650	522.240644	1233.401340	-109.039201	449.076402	1223.206022	-475.129075	487.656152	1317.615075	-294.358880	471.705754	1183.576120	-286.897850	476.801736	1022.357577	34.633382	672.934783	901.496436	-37.083824	420.955288	952.204258	-548.934002	662.130540	907.023966	-475.489411	18.346750	1118.006948	-190.019084	125.485141	1144.746224	-361.332675	179.058580	1108.145154	-64.847326	179.081940	1092.261110	-345.357357	218.609448	1060.453932	-97.664679	55.205224	1144.765602	-132.482219	33.163137	1162.178823	-238.319196	154.215340	959.076874	-31.316732	125.960624	1045.448868	-406.966600	224.033080	846.552014	-45.422983	283.422158	782.476946	-57.587019	296.216301	695.343296	-70.790319	309.695304	796.768037	-79.407309	325.492415	606.307044	-103.319759	301.023252	586.482133	-199.563240	280.287877	517.051314	-66.896095	280.634612	428.000137	-78.422436	237.357671	351.826237	-74.615223	303.919575	424.431971	-110.348068	205.016367	254.421135	-71.219434	204.963189	263.530416	-146.627416	121.405124	249.857271	-110.710506	358.381372	128.135020	-132.585812	281.285183	146.671810	-61.779845	260.792347	1010.519835	-394.781322	344.215406	1010.208377	-378.905506	350.862664	1038.519932	-353.018900	424.107105	967.329707	-380.423131	505.464564	905.327154	-363.108868	510.772254	878.766247	-261.415556	283.791903	614.400274	-406.683598	296.716072	612.301989	-333.667152	200.927085	608.157505	-371.216223	332.713480	493.557443	-431.080285	451.168482	828.069057	-391.714669	416.099597	748.535124	-393.097161	344.125643	696.037561	-400.226639	436.840484	730.982095	-365.157072	421.130882	465.981105	-361.377086	-64.585018	852.423414	-237.630263	21.028680	85.135857	-442.107985	21.077170	84.083291	-43.723998	
